<?xml version="1.0" encoding="UTF-8" standalone="no"?>
<!-- Created with Inkscape (http://www.inkscape.org/) -->

<svg
   xmlns:dc="http://purl.org/dc/elements/1.1/"
   xmlns:cc="http://creativecommons.org/ns#"
   xmlns:rdf="http://www.w3.org/1999/02/22-rdf-syntax-ns#"
   xmlns:svg="http://www.w3.org/2000/svg"
   xmlns="http://www.w3.org/2000/svg"
   xmlns:sodipodi="http://sodipodi.sourceforge.net/DTD/sodipodi-0.dtd"
   xmlns:inkscape="http://www.inkscape.org/namespaces/inkscape"
   width="174.98877"
   height="44.965969"
   id="svg3468"
   version="1.1"
   inkscape:version="0.48.4 r9939"
   sodipodi:docname="logo.svg">
  <defs
     id="defs3470" />
  <sodipodi:namedview
     id="base"
     pagecolor="#ffffff"
     bordercolor="#666666"
     borderopacity="1.0"
     inkscape:pageopacity="0.0"
     inkscape:pageshadow="2"
     inkscape:zoom="3.959798"
     inkscape:cx="82.218113"
     inkscape:cy="37.55773"
     inkscape:document-units="px"
     inkscape:current-layer="layer1"
     showgrid="true"
     inkscape:snap-global="true"
     fit-margin-top="0"
     fit-margin-left="0"
     fit-margin-right="0"
     fit-margin-bottom="0"
     inkscape:window-width="1600"
     inkscape:window-height="868"
     inkscape:window-x="1600"
     inkscape:window-y="0"
     inkscape:window-maximized="1">
    <inkscape:grid
       type="xygrid"
       id="grid3529"
       empspacing="5"
       visible="true"
       enabled="true"
       snapvisiblegridlinesonly="true"
       originx="0px"
       originy="-74.97237px" />
  </sodipodi:namedview>
  <metadata
     id="metadata3473">
    <rdf:RDF>
      <cc:Work
         rdf:about="">
        <dc:format>image/svg+xml</dc:format>
        <dc:type
           rdf:resource="http://purl.org/dc/dcmitype/StillImage" />
        <dc:title></dc:title>
      </cc:Work>
    </rdf:RDF>
  </metadata>
  <g
     inkscape:label="Layer 1"
     inkscape:groupmode="layer"
     id="layer1"
     transform="translate(0,-932.42384)">
    <path
       inkscape:connector-curvature="0"
       d="m 4.995609,977.38981 -4.995609,0 0,-4.99557 4.995609,0 0,4.99557 z"
       style="fill:#26627f;fill-opacity:1;fill-rule:nonzero;stroke:none"
       id="path3020" />
    <path
       inkscape:connector-curvature="0"
       d="m 14.988204,977.38981 -4.996986,0 0,-4.99557 4.996986,0 0,4.99557 z"
       style="fill:#26627f;fill-opacity:1;fill-rule:nonzero;stroke:none"
       id="path3022" />
    <path
       inkscape:connector-curvature="0"
       d="m 24.984927,977.38981 -4.998361,0 0,-4.99557 4.998361,0 0,4.99557 z"
       style="fill:#26627f;fill-opacity:1;fill-rule:nonzero;stroke:none"
       id="path3024" />
    <path
       inkscape:connector-curvature="0"
       d="m 174.9881,977.38981 -144.865776,0 0,-4.99557 144.865776,0 0,4.99557 z"
       style="fill:#333333;fill-opacity:1;fill-rule:nonzero;stroke:none"
       id="path3026" />
    <g
       id="g3028"
       transform="matrix(1.37658,0,0,-1.3765811,25.125614,942.41187)"
       style="fill:#26627f;fill-opacity:1">
      <path
         inkscape:connector-curvature="0"
         d="m 0,0 0,-3.631 -14.52,0 0,-3.63 14.52,0 0,-10.89 -18.15,0 0,3.631 14.52,0 0,3.629 -14.52,0 L -18.15,0 0,0 z"
         style="fill:#26627f;fill-opacity:1;fill-rule:nonzero;stroke:none"
         id="path3030" />
    </g>
    <path
       inkscape:connector-curvature="0"
       d="m 35.11931,952.40629 14.992333,0 0,-4.997 -14.992333,0 0,4.997 z m 19.987942,-9.99398 0,14.99229 -19.987942,0 0,4.99567 19.987942,0 0,4.99831 -24.984928,0 0,-24.98627 24.984928,0 z"
       style="fill:#333333;fill-opacity:1;fill-rule:nonzero;stroke:none"
       id="path3032" />
    <path
       inkscape:connector-curvature="0"
       d="m 95.081758,962.40302 14.992342,0 0,-14.99096 -14.992342,0 0,14.99096 z m 19.989322,-29.97918 0,34.97474 -24.983555,0 0,-24.98494 19.986575,0 0,-9.9898 4.99698,0 z"
       style="fill:#26627f;fill-opacity:1;fill-rule:nonzero;stroke:none"
       id="path3034" />
    <path
       inkscape:connector-curvature="0"
       d="m 125.01962,952.40629 14.99233,0 0,-4.997 -14.99233,0 0,4.997 z m 19.98794,-9.99398 0,14.99229 -19.98794,0 0,4.99567 19.98794,0 0,4.99831 -24.98493,0 0,-24.98627 24.98493,0 z"
       style="fill:#333333;fill-opacity:1;fill-rule:nonzero;stroke:none"
       id="path3036" />
    <g
       id="g3038"
       transform="matrix(1.37658,0,0,-1.3765811,85.0827,949.48705)"
       style="fill:#333333;fill-opacity:1">
      <path
         inkscape:connector-curvature="0"
         d="M 0,0 -13.009,-13.008 -18.144,-13.013 -2.565,2.566 0,0 z"
         style="fill:#333333;fill-opacity:1;fill-rule:nonzero;stroke:none"
         id="path3040" />
    </g>
    <g
       id="g3042"
       transform="matrix(1.37658,0,0,-1.3765811,65.101498,957.40042)"
       style="fill:#333333;fill-opacity:1">
      <path
         inkscape:connector-curvature="0"
         d="m 0,0 0,10.89 -3.63,0 0,-18.15 3.63,0 0,3.63 L 0,0 z"
         style="fill:#333333;fill-opacity:1;fill-rule:nonzero;stroke:none"
         id="path3044" />
    </g>
    <g
       id="g3046"
       transform="matrix(1.37658,0,0,-1.3765811,80.092596,942.41)"
       style="fill:#333333;fill-opacity:1">
      <path
         inkscape:connector-curvature="0"
         d="M 0,0 0,-8.234 3.63,-5.141 3.63,0 0,0 z"
         style="fill:#333333;fill-opacity:1;fill-rule:nonzero;stroke:none"
         id="path3048" />
    </g>
    <g
       id="g3050"
       transform="matrix(1.37658,0,0,-1.3765811,174.98191,949.48705)"
       style="fill:#333333;fill-opacity:1">
      <path
         inkscape:connector-curvature="0"
         d="M 0,0 -13.008,-13.008 -18.144,-13.013 -2.564,2.566 0,0 z"
         style="fill:#333333;fill-opacity:1;fill-rule:nonzero;stroke:none"
         id="path3052" />
    </g>
    <g
       id="g3054"
       transform="matrix(1.37658,0,0,-1.3765811,155.00125,957.40042)"
       style="fill:#333333;fill-opacity:1">
      <path
         inkscape:connector-curvature="0"
         d="m 0,0 0,10.89 -3.63,0 0,-18.15 3.63,0 0,3.63 L 0,0 z"
         style="fill:#333333;fill-opacity:1;fill-rule:nonzero;stroke:none"
         id="path3056" />
    </g>
    <g
       id="g3058"
       transform="matrix(1.37658,0,0,-1.3765811,169.99179,942.41)"
       style="fill:#333333;fill-opacity:1">
      <path
         inkscape:connector-curvature="0"
         d="M 0,0 0,-8.234 3.63,-5.141 3.63,0 0,0 z"
         style="fill:#333333;fill-opacity:1;fill-rule:nonzero;stroke:none"
         id="path3060" />
    </g>
    <path
       inkscape:connector-curvature="0"
       d="m 0.13765795,937.41807 84.95150605,0 0,-4.99423 -84.95150605,0 0,4.99423 z"
       style="fill:#333333;fill-opacity:1;fill-rule:nonzero;stroke:none"
       id="path3062" />
    <path
       inkscape:connector-curvature="0"
       d="m 120.02263,937.41807 54.89939,0 0,-4.99423 -54.89939,0 0,4.99423 z"
       style="fill:#333333;fill-opacity:1;fill-rule:nonzero;stroke:none"
       id="path3064" />
    <path
       inkscape:connector-curvature="0"
       d="m 90.087525,937.41807 14.989575,0 0,-4.99423 -14.989575,0 0,4.99423 z"
       style="fill:#26627f;fill-opacity:1;fill-rule:nonzero;stroke:none"
       id="path3066" />
  </g>
</svg>
