<?xml version="1.0" encoding="UTF-8" standalone="no"?>
<svg
   xmlns:osb="http://www.openswatchbook.org/uri/2009/osb"
   xmlns:dc="http://purl.org/dc/elements/1.1/"
   xmlns:cc="http://creativecommons.org/ns#"
   xmlns:rdf="http://www.w3.org/1999/02/22-rdf-syntax-ns#"
   xmlns:svg="http://www.w3.org/2000/svg"
   xmlns="http://www.w3.org/2000/svg"
   xmlns:xlink="http://www.w3.org/1999/xlink"
   version="1.1"
   id="svg2"
   viewBox="0 0 320 480.00001"
   height="480"
   width="320">
  <defs
     id="defs4">
    <linearGradient
       osb:paint="solid"
       id="linearGradient4888">
      <stop
         id="stop4890"
         offset="0"
         style="stop-color:#090d0c;stop-opacity:1;" />
    </linearGradient>
    <linearGradient
       osb:paint="solid"
       id="linearGradient4850">
      <stop
         id="stop4852"
         offset="0"
         style="stop-color:#fff7c6;stop-opacity:1;" />
    </linearGradient>
    <linearGradient
       gradientTransform="translate(0,-24)"
       osb:paint="solid"
       id="linearGradient4812">
      <stop
         id="stop4814"
         offset="0"
         style="stop-color:#1a1d59;stop-opacity:1;" />
    </linearGradient>
    <linearGradient
       gradientTransform="matrix(1.000642,0,0,1.000642,641.34852,4720.7953)"
       osb:paint="solid"
       id="linearGradient4774">
      <stop
         id="stop4776"
         offset="0"
         style="stop-color:#731024;stop-opacity:1;" />
    </linearGradient>
    <linearGradient
       osb:paint="solid"
       id="linearGradient4736">
      <stop
         id="stop4738"
         offset="0"
         style="stop-color:#b82128;stop-opacity:1;" />
    </linearGradient>
    <linearGradient
       y2="498.06168"
       x2="353.20801"
       y1="498.06168"
       x1="208.34222"
       gradientTransform="matrix(1.0000642,0,0,1.0000642,-103.23136,334.25497)"
       gradientUnits="userSpaceOnUse"
       id="linearGradient4278"
       xlink:href="#linearGradient4812" />
    <linearGradient
       y2="478.0751"
       x2="233.32715"
       y1="478.0751"
       x1="208.34222"
       gradientTransform="matrix(1.0000642,0,0,1.0000642,-103.23136,334.25497)"
       gradientUnits="userSpaceOnUse"
       id="linearGradient4280"
       xlink:href="#linearGradient4812" />
    <linearGradient
       y2="478.0751"
       x2="323.22745"
       y1="478.0751"
       x1="298.24252"
       gradientTransform="matrix(1.0000642,0,0,1.0000642,-103.23136,334.25497)"
       gradientUnits="userSpaceOnUse"
       id="linearGradient4282"
       xlink:href="#linearGradient4812" />
    <linearGradient
       y2="-5.2234998"
       x2="0"
       y1="-5.2234998"
       x1="-18.143999"
       gradientUnits="userSpaceOnUse"
       id="linearGradient4284"
       xlink:href="#linearGradient4812" />
    <linearGradient
       y2="-5.2234998"
       x2="0"
       y1="-5.2234998"
       x1="-18.143999"
       gradientUnits="userSpaceOnUse"
       id="linearGradient4286"
       xlink:href="#linearGradient4812" />
    <linearGradient
       y2="1.8150001"
       x2="0"
       y1="1.8150001"
       x1="-3.6300001"
       gradientUnits="userSpaceOnUse"
       id="linearGradient4288"
       xlink:href="#linearGradient4812" />
    <linearGradient
       y2="1.8150001"
       x2="0"
       y1="1.8150001"
       x1="-3.6300001"
       gradientUnits="userSpaceOnUse"
       id="linearGradient4290"
       xlink:href="#linearGradient4812" />
    <linearGradient
       y2="-4.1170001"
       x2="3.6300001"
       y1="-4.1170001"
       x1="0"
       gradientUnits="userSpaceOnUse"
       id="linearGradient4292"
       xlink:href="#linearGradient4812" />
    <linearGradient
       y2="-4.1170001"
       x2="3.6300001"
       y1="-4.1170001"
       x1="0"
       gradientUnits="userSpaceOnUse"
       id="linearGradient4294"
       xlink:href="#linearGradient4812" />
    <linearGradient
       y2="-5.2234998"
       x2="0"
       y1="-5.2234998"
       x1="-18.143999"
       gradientUnits="userSpaceOnUse"
       id="linearGradient4296"
       xlink:href="#linearGradient4812" />
    <linearGradient
       y2="-5.2234998"
       x2="0"
       y1="-5.2234998"
       x1="-18.143999"
       gradientUnits="userSpaceOnUse"
       id="linearGradient4298"
       xlink:href="#linearGradient4812" />
    <linearGradient
       y2="1.8150001"
       x2="0"
       y1="1.8150001"
       x1="-3.6300001"
       gradientUnits="userSpaceOnUse"
       id="linearGradient4300"
       xlink:href="#linearGradient4812" />
    <linearGradient
       y2="1.8150001"
       x2="0"
       y1="1.8150001"
       x1="-3.6300001"
       gradientUnits="userSpaceOnUse"
       id="linearGradient4302"
       xlink:href="#linearGradient4812" />
    <linearGradient
       y2="-4.1170001"
       x2="3.6300001"
       y1="-4.1170001"
       x1="0"
       gradientUnits="userSpaceOnUse"
       id="linearGradient4304"
       xlink:href="#linearGradient4812" />
    <linearGradient
       y2="-4.1170001"
       x2="3.6300001"
       y1="-4.1170001"
       x1="0"
       gradientUnits="userSpaceOnUse"
       id="linearGradient4306"
       xlink:href="#linearGradient4812" />
    <linearGradient
       y2="458.09061"
       x2="263.30905"
       y1="458.09061"
       x1="178.35756"
       gradientTransform="matrix(1.0000642,0,0,1.0000642,-103.23136,334.25497)"
       gradientUnits="userSpaceOnUse"
       id="linearGradient4308"
       xlink:href="#linearGradient4812" />
    <linearGradient
       y2="458.09061"
       x2="353.14191"
       y1="458.09061"
       x1="298.24252"
       gradientTransform="matrix(1.0000642,0,0,1.0000642,-103.23136,334.25497)"
       gradientUnits="userSpaceOnUse"
       id="linearGradient4310"
       xlink:href="#linearGradient4812" />
  </defs>
  <metadata
     id="metadata7">
    <rdf:RDF>
      <cc:Work
         rdf:about="">
        <dc:format>image/svg+xml</dc:format>
        <dc:type
           rdf:resource="http://purl.org/dc/dcmitype/StillImage" />
        <dc:title></dc:title>
      </cc:Work>
    </rdf:RDF>
  </metadata>
  <g
     style="display:none"
     transform="translate(0,-572.36216)"
     id="layer1">
    <g
       id="g4349">
      <g
         id="g4342"
         transform="translate(0,0.00813)">
        <path
           id="path3020"
           style="fill:url(#linearGradient4774);fill-opacity:1;fill-rule:nonzero;stroke:none"
           d="m 139.99593,824.84659 -4.99593,0 0,-4.99589 4.99593,0 0,4.99589 z" />
        <path
           id="path3022"
           style="fill:url(#linearGradient4774);fill-opacity:1;fill-rule:nonzero;stroke:none"
           d="m 149.98917,824.84659 -4.9973,0 0,-4.99589 4.9973,0 0,4.99589 z" />
        <path
           id="path3024"
           style="fill:url(#linearGradient4774);fill-opacity:1;fill-rule:nonzero;stroke:none"
           d="m 159.98653,824.84659 -4.99868,0 0,-4.99589 4.99868,0 0,4.99589 z" />
        <g
           style="fill:url(#linearGradient4774);fill-opacity:1;stroke:none"
           transform="matrix(1.3766684,0,0,-1.3766695,160.12722,789.8664)"
           id="g3028">
          <path
             id="path3030"
             style="fill:url(#linearGradient4774);fill-opacity:1;fill-rule:nonzero;stroke:none"
             d="m 0,0 0,-3.631 -14.52,0 0,-3.63 14.52,0 0,-10.89 -18.15,0 0,3.631 14.52,0 0,3.629 -14.52,0 L -18.15,0 0,0 Z" />
        </g>
      </g>
      <g
         id="g4338">
        <path
           id="path3034"
           style="fill:url(#linearGradient4774);fill-opacity:1;fill-rule:nonzero;stroke:none"
           d="m 170.08785,819.85884 14.9933,0 0,-14.99193 -14.9933,0 0,14.99193 z m 19.9906,-29.98111 0,34.97699 -24.98516,0 0,-24.98655 19.98786,0 0,-9.99044 4.9973,0 z" />
        <path
           id="path3066"
           style="fill:url(#linearGradient4774);fill-opacity:1;fill-rule:nonzero;stroke:none"
           d="m 165.09329,794.87228 14.99054,0 0,-4.99455 -14.99054,0 0,4.99455 z" />
      </g>
    </g>
  </g>
  <g
     id="logo"
     transform="translate(0,-572.36216)"
     style="display:inline">
    <g
       transform="translate(0,0.431141)"
       id="the-s">
      <path
         id="dot-1"
         style="fill:url(#linearGradient4774);fill-opacity:1;fill-rule:nonzero;stroke:none"
         d="m 79.858264,747.33102 -4.995933,0 0,-4.99589 4.995933,0 0,4.99589 z" />
      <path
         id="dot-2"
         style="fill:url(#linearGradient4774);fill-opacity:1;fill-rule:nonzero;stroke:none"
         d="m 89.851499,747.33102 -4.9973,0 0,-4.99589 4.9973,0 0,4.99589 z" />
      <path
         id="dot-3"
         style="fill:url(#linearGradient4774);fill-opacity:1;fill-rule:nonzero;stroke:none"
         d="m 99.848861,747.33102 -4.998681,0 0,-4.99589 4.998681,0 0,4.99589 z" />
      <g
         style="fill:url(#linearGradient4774);fill-opacity:1;stroke:none"
         transform="matrix(1.3766684,0,0,-1.3766695,99.989551,712.35083)"
         id="g4238">
        <path
           id="path4240"
           style="fill:url(#linearGradient4774);fill-opacity:1;fill-rule:nonzero;stroke:none"
           d="m 0,0 0,-3.631 -14.52,0 0,-3.63 14.52,0 0,-10.89 -18.15,0 0,3.631 14.52,0 0,3.629 -14.52,0 L -18.15,0 0,0 Z" />
      </g>
    </g>
    <g
       transform="translate(-0.137669,-87.084429)"
       id="blue-rest">
      <path
         id="path4236"
         style="fill:url(#linearGradient4278);fill-opacity:1;fill-rule:nonzero;stroke:none"
         d="m 249.99932,834.84659 -144.87507,0 0,-4.99589 144.87507,0 0,4.99589 z" />
      <path
         id="path4242"
         style="fill:url(#linearGradient4280);fill-opacity:1;fill-rule:nonzero;stroke:none"
         d="m 110.12155,809.86146 14.99329,0 0,-4.99732 -14.99329,0 0,4.99732 z m 19.98922,-9.99462 0,14.99325 -19.98922,0 0,4.996 19.98922,0 0,4.99863 -24.98652,0 0,-24.98788 24.98652,0 z" />
      <path
         id="path4246"
         style="fill:url(#linearGradient4282);fill-opacity:1;fill-rule:nonzero;stroke:none"
         d="m 200.02763,809.86146 14.9933,0 0,-4.99732 -14.9933,0 0,4.99732 z m 19.98923,-9.99462 0,14.99325 -19.98923,0 0,4.996 19.98923,0 0,4.99863 -24.98654,0 0,-24.98788 24.98654,0 z" />
      <g
         style="fill:url(#linearGradient4286);fill-opacity:1;stroke:none"
         transform="matrix(1.3766684,0,0,-1.3766695,160.08815,806.94204)"
         id="g4248">
        <path
           id="path4250"
           style="fill:url(#linearGradient4284);fill-opacity:1;fill-rule:nonzero;stroke:none"
           d="M 0,0 -13.009,-13.008 -18.144,-13.013 -2.565,2.566 0,0 Z" />
      </g>
      <g
         style="fill:url(#linearGradient4290);fill-opacity:1;stroke:none"
         transform="matrix(1.3766684,0,0,-1.3766695,140.10567,814.85591)"
         id="g4252">
        <path
           id="path4254"
           style="fill:url(#linearGradient4288);fill-opacity:1;fill-rule:nonzero;stroke:none"
           d="m 0,0 0,10.89 -3.63,0 0,-18.15 3.63,0 0,3.63 L 0,0 Z" />
      </g>
      <g
         style="fill:url(#linearGradient4294);fill-opacity:1;stroke:none"
         transform="matrix(1.3766684,0,0,-1.3766695,155.09772,799.86453)"
         id="g4256">
        <path
           id="path4258"
           style="fill:url(#linearGradient4292);fill-opacity:1;fill-rule:nonzero;stroke:none"
           d="M 0,0 0,-8.234 3.63,-5.141 3.63,0 0,0 Z" />
      </g>
      <g
         style="fill:url(#linearGradient4298);fill-opacity:1;stroke:none"
         transform="matrix(1.3766684,0,0,-1.3766695,249.99313,806.94204)"
         id="g4260">
        <path
           id="path4262"
           style="fill:url(#linearGradient4296);fill-opacity:1;fill-rule:nonzero;stroke:none"
           d="M 0,0 -13.008,-13.008 -18.144,-13.013 -2.564,2.566 0,0 Z" />
      </g>
      <g
         style="fill:url(#linearGradient4302);fill-opacity:1;stroke:none"
         transform="matrix(1.3766684,0,0,-1.3766695,230.01119,814.85591)"
         id="g4264">
        <path
           id="path4266"
           style="fill:url(#linearGradient4300);fill-opacity:1;fill-rule:nonzero;stroke:none"
           d="m 0,0 0,10.89 -3.63,0 0,-18.15 3.63,0 0,3.63 L 0,0 Z" />
      </g>
      <g
         style="fill:url(#linearGradient4306);fill-opacity:1;stroke:none"
         transform="matrix(1.3766684,0,0,-1.3766695,245.00269,799.86453)"
         id="g4268">
        <path
           id="path4270"
           style="fill:url(#linearGradient4304);fill-opacity:1;fill-rule:nonzero;stroke:none"
           d="M 0,0 0,-8.234 3.63,-5.141 3.63,0 0,0 Z" />
      </g>
      <path
         id="path4272"
         style="fill:url(#linearGradient4308);fill-opacity:1;fill-rule:nonzero;stroke:none"
         d="m 75.137669,794.87228 84.956941,0 0,-4.99455 -84.956941,0 0,4.99455 z" />
      <path
         id="path4274"
         style="fill:url(#linearGradient4310);fill-opacity:1;fill-rule:nonzero;stroke:none"
         d="m 195.03032,794.87228 54.90292,0 0,-4.99455 -54.90292,0 0,4.99455 z" />
    </g>
    <g
       transform="translate(0,0.431141)"
       id="the-d">
      <path
         id="path4244"
         style="fill:url(#linearGradient4774);fill-opacity:1;fill-rule:nonzero;stroke:none"
         d="m 169.95018,732.34327 14.9933,0 0,-14.99193 -14.9933,0 0,14.99193 z m 19.9906,-29.98111 0,34.97699 -24.98516,0 0,-24.98655 19.98786,0 0,-9.99044 4.9973,0 z" />
      <path
         id="bar"
         style="fill:url(#linearGradient4774);fill-opacity:1;fill-rule:nonzero;stroke:none"
         d="m 164.95562,707.35671 14.99054,0 0,-4.99455 -14.99054,0 0,4.99455 z" />
    </g>
    <text
       id="text4456"
       y="811.52875"
       x="218.26147"
       style="font-style:normal;font-weight:normal;font-size:40px;line-height:125%;font-family:Sans;letter-spacing:0px;word-spacing:0px;fill:#000000;fill-opacity:1;stroke:none;stroke-width:1px;stroke-linecap:butt;stroke-linejoin:miter;stroke-opacity:1"
       xml:space="preserve"><tspan
         y="811.52875"
         x="218.26147"
         id="tspan4458"> </tspan></text>
    <g
       transform="translate(0,7.9003908e-6)"
       id="g4700">
      <text
         xml:space="preserve"
         style="font-style:normal;font-weight:normal;font-size:40px;line-height:125%;font-family:Sans;letter-spacing:0px;word-spacing:0px;fill:#000000;fill-opacity:1;stroke:none;stroke-width:1px;stroke-linecap:butt;stroke-linejoin:miter;stroke-opacity:1"
         x="59.819336"
         y="866.85486"
         id="text4444"><tspan
           x="59.819336"
           y="866.85486"
           id="tspan4450"
           style="font-style:normal;font-variant:normal;font-weight:normal;font-stretch:normal;font-size:17.5px;font-family:Hack;-inkscape-font-specification:Hack;text-align:center;text-anchor:middle;fill:url(#linearGradient4774)">about/cv</tspan></text>
      <path
         d="m 193.84928,862.68286 -4.99593,0 0,-4.99589 4.99593,0 0,4.99589 z"
         style="display:inline;fill:url(#linearGradient4774);fill-opacity:1;fill-rule:nonzero;stroke:none"
         id="dot-1-9" />
      <text
         xml:space="preserve"
         style="font-style:normal;font-weight:normal;font-size:40px;line-height:125%;font-family:Sans;letter-spacing:0px;word-spacing:0px;display:inline;fill:#000000;fill-opacity:1;stroke:none;stroke-width:1px;stroke-linecap:butt;stroke-linejoin:miter;stroke-opacity:1"
         x="254.16502"
         y="865.70251"
         id="text4444-3"><tspan
           x="254.16502"
           y="865.70251"
           id="tspan4450-6"
           style="font-style:normal;font-variant:normal;font-weight:normal;font-stretch:normal;font-size:17.5px;font-family:Hack;-inkscape-font-specification:Hack;text-align:center;text-anchor:middle;fill:url(#linearGradient4774)">portfolio</tspan></text>
      <text
         xml:space="preserve"
         style="font-style:normal;font-weight:normal;font-size:40px;line-height:125%;font-family:Sans;letter-spacing:0px;word-spacing:0px;display:inline;fill:#000000;fill-opacity:1;stroke:none;stroke-width:1px;stroke-linecap:butt;stroke-linejoin:miter;stroke-opacity:1"
         x="154.6167"
         y="865.63416"
         id="text4444-3-9"><tspan
           x="154.6167"
           y="865.63416"
           id="tspan4450-6-5"
           style="font-style:normal;font-variant:normal;font-weight:normal;font-stretch:normal;font-size:17.5px;font-family:Hack;-inkscape-font-specification:Hack;text-align:center;text-anchor:middle;fill:url(#linearGradient4774)">blog</tspan></text>
      <path
         d="m 120.64493,862.68286 -4.99593,0 0,-4.99589 4.99593,0 0,4.99589 z"
         style="display:inline;fill:url(#linearGradient4774);fill-opacity:1;fill-rule:nonzero;stroke:none"
         id="dot-1-9-5" />
    </g>
    <text
       id="text4444-9"
       y="784.3916"
       x="160.01465"
       style="font-style:normal;font-weight:normal;font-size:40px;line-height:125%;font-family:Sans;letter-spacing:0px;word-spacing:0px;display:inline;fill:url(#linearGradient4812);fill-opacity:1;stroke:none;stroke-width:1px;stroke-linecap:butt;stroke-linejoin:miter;stroke-opacity:1"
       xml:space="preserve"><tspan
         style="font-style:normal;font-variant:normal;font-weight:normal;font-stretch:normal;font-size:20px;font-family:Hack;-inkscape-font-specification:Hack;text-align:center;text-anchor:middle;fill:url(#linearGradient4812)"
         id="tspan4450-8"
         y="784.3916"
         x="160.01465">Andras Sevcsik</tspan><tspan
         id="tspan4564"
         style="font-style:normal;font-variant:normal;font-weight:normal;font-stretch:normal;font-size:15px;font-family:Hack;-inkscape-font-specification:Hack;text-align:center;text-anchor:middle;fill:url(#linearGradient4812)"
         y="804.40784"
         x="160.01465">developer</tspan></text>
    <flowRoot
       style="fill:black;stroke:none;stroke-opacity:1;stroke-width:1px;stroke-linejoin:miter;stroke-linecap:butt;fill-opacity:1;font-family:Sans;font-style:normal;font-weight:normal;font-size:40px;line-height:125%;letter-spacing:0px;word-spacing:0px"
       id="flowRoot4566"
       xml:space="preserve"><flowRegion
         id="flowRegion4568"><rect
           y="280"
           x="-25"
           height="50"
           width="350"
           id="rect4570" /></flowRegion><flowPara
         id="flowPara4572"></flowPara></flowRoot>    <text
       id="text4444-4-4"
       y="909.41455"
       x="159.86328"
       style="font-style:normal;font-weight:normal;font-size:40px;line-height:125%;font-family:Sans;letter-spacing:0px;word-spacing:0px;display:inline;fill:#000000;fill-opacity:1;stroke:none;stroke-width:1px;stroke-linecap:butt;stroke-linejoin:miter;stroke-opacity:1"
       xml:space="preserve"><tspan
         style="font-style:normal;font-variant:normal;font-weight:normal;font-stretch:normal;font-size:17.5px;font-family:Hack;-inkscape-font-specification:Hack;text-align:center;text-anchor:middle;fill:url(#linearGradient4774)"
         id="tspan4450-1-1"
         y="909.41455"
         x="159.86328">sevcsik@sevdev.hu</tspan></text>
    <g
       id="g4710">
      <text
         xml:space="preserve"
         style="font-style:normal;font-weight:normal;font-size:40px;line-height:125%;font-family:Sans;letter-spacing:0px;word-spacing:0px;display:inline;fill:#000000;fill-opacity:1;stroke:none;stroke-width:1px;stroke-linecap:butt;stroke-linejoin:miter;stroke-opacity:1"
         x="57.275391"
         y="951.76666"
         id="text4444-4"><tspan
           x="57.275391"
           y="951.76666"
           id="tspan4450-1"
           style="font-style:normal;font-variant:normal;font-weight:normal;font-stretch:normal;font-size:15px;font-family:Hack;-inkscape-font-specification:Hack;text-align:center;text-anchor:middle;fill:url(#linearGradient4774)">linkedin</tspan></text>
      <text
         xml:space="preserve"
         style="font-style:normal;font-weight:normal;font-size:40px;line-height:125%;font-family:Sans;letter-spacing:0px;word-spacing:0px;display:inline;fill:#000000;fill-opacity:1;stroke:none;stroke-width:1px;stroke-linecap:butt;stroke-linejoin:miter;stroke-opacity:1"
         x="167.91016"
         y="951.76666"
         id="text4444-4-7"><tspan
           x="167.91016"
           y="951.76666"
           id="tspan4450-1-5"
           style="font-style:normal;font-variant:normal;font-weight:normal;font-stretch:normal;font-size:15px;font-family:Hack;-inkscape-font-specification:Hack;text-align:center;text-anchor:middle;fill:url(#linearGradient4774)">stackoverflow</tspan></text>
      <text
         xml:space="preserve"
         style="font-style:normal;font-weight:normal;font-size:40px;line-height:125%;font-family:Sans;letter-spacing:0px;word-spacing:0px;display:inline;fill:#000000;fill-opacity:1;stroke:none;stroke-width:1px;stroke-linecap:butt;stroke-linejoin:miter;stroke-opacity:1"
         x="271.30859"
         y="950.26154"
         id="text4444-4-7-3"><tspan
           x="271.30859"
           y="950.26154"
           id="tspan4450-1-5-4"
           style="font-style:normal;font-variant:normal;font-weight:normal;font-stretch:normal;font-size:15px;font-family:Hack;-inkscape-font-specification:Hack;text-align:center;text-anchor:middle;fill:url(#linearGradient4774)">github</tspan></text>
      <path
         d="m 238.45499,948.67254 -4.99593,0 0,-4.99589 4.99593,0 0,4.99589 z"
         style="display:inline;fill:url(#linearGradient4774);fill-opacity:1;fill-rule:nonzero;stroke:none"
         id="dot-1-9-1" />
      <path
         d="m 103.92862,948.67254 -4.99593,0 0,-4.99589 4.99593,0 0,4.99589 z"
         style="display:inline;fill:url(#linearGradient4774);fill-opacity:1;fill-rule:nonzero;stroke:none"
         id="dot-1-9-1-2" />
    </g>
  </g>
</svg>
