<?xml version="1.0" encoding="UTF-8" standalone="no"?>
<svg
   xmlns:osb="http://www.openswatchbook.org/uri/2009/osb"
   xmlns:dc="http://purl.org/dc/elements/1.1/"
   xmlns:cc="http://creativecommons.org/ns#"
   xmlns:rdf="http://www.w3.org/1999/02/22-rdf-syntax-ns#"
   xmlns:svg="http://www.w3.org/2000/svg"
   xmlns="http://www.w3.org/2000/svg"
   version="1.1"
   id="svg4771"
   viewBox="0 0 25.12722 34.980189"
   height="9.8721867mm"
   width="7.0914598mm">
  <defs
     id="defs4773">
    <linearGradient
       gradientTransform="matrix(1.000642,0,0,1.000642,641.34852,4720.7953)"
       osb:paint="solid"
       id="linearGradient4774">
      <stop
         id="stop4776"
         offset="0"
         style="stop-color:#731024;stop-opacity:1;" />
    </linearGradient>
  </defs>
  <metadata
     id="metadata4776">
    <rdf:RDF>
      <cc:Work
         rdf:about="">
        <dc:format>image/svg+xml</dc:format>
        <dc:type
           rdf:resource="http://purl.org/dc/dcmitype/StillImage" />
        <dc:title></dc:title>
      </cc:Work>
    </rdf:RDF>
  </metadata>
  <g
     transform="translate(35.420749,-349.15782)"
     id="layer1">
    <g
       transform="translate(-110.28308,-363.19301)"
       id="the-s"
       style="display:inline">
      <path
         id="dot-1"
         style="fill:url(#linearGradient4774);fill-opacity:1;fill-rule:nonzero;stroke:none"
         d="m 79.858264,747.33102 -4.995933,0 0,-4.99589 4.995933,0 0,4.99589 z" />
      <path
         id="dot-2"
         style="fill:url(#linearGradient4774);fill-opacity:1;fill-rule:nonzero;stroke:none"
         d="m 89.851499,747.33102 -4.9973,0 0,-4.99589 4.9973,0 0,4.99589 z" />
      <path
         id="dot-3"
         style="fill:url(#linearGradient4774);fill-opacity:1;fill-rule:nonzero;stroke:none"
         d="m 99.848861,747.33102 -4.998681,0 0,-4.99589 4.998681,0 0,4.99589 z" />
      <g
         style="fill:url(#linearGradient4774);fill-opacity:1;stroke:none"
         transform="matrix(1.3766684,0,0,-1.3766695,99.989551,712.35083)"
         id="g4238">
        <path
           id="path4240"
           style="fill:url(#linearGradient4774);fill-opacity:1;fill-rule:nonzero;stroke:none"
           d="m 0,0 0,-3.631 -14.52,0 0,-3.63 14.52,0 0,-10.89 -18.15,0 0,3.631 14.52,0 0,3.629 -14.52,0 L -18.15,0 0,0 Z" />
      </g>
    </g>
  </g>
</svg>
