<?xml version="1.0" encoding="UTF-8" standalone="no"?>
<svg
   xmlns:osb="http://www.openswatchbook.org/uri/2009/osb"
   xmlns:dc="http://purl.org/dc/elements/1.1/"
   xmlns:cc="http://creativecommons.org/ns#"
   xmlns:rdf="http://www.w3.org/1999/02/22-rdf-syntax-ns#"
   xmlns:svg="http://www.w3.org/2000/svg"
   xmlns="http://www.w3.org/2000/svg"
   xmlns:xlink="http://www.w3.org/1999/xlink"
   version="1.1"
   id="svg6075"
   viewBox="0 0 174.86232 44.96886"
   height="12.691212mm"
   width="49.350033mm">
  <defs
     id="defs6077">
    <linearGradient
       y2="498.06168"
       x2="353.20801"
       y1="498.06168"
       x1="208.34222"
       gradientTransform="matrix(1.0000642,0,0,1.0000642,-103.23136,334.25497)"
       gradientUnits="userSpaceOnUse"
       id="linearGradient4278"
       xlink:href="#linearGradient4812" />
    <linearGradient
       gradientTransform="translate(0,-24)"
       osb:paint="solid"
       id="linearGradient4812">
      <stop
         id="stop4814"
         offset="0"
         style="stop-color:#1a1d59;stop-opacity:1;" />
    </linearGradient>
    <linearGradient
       y2="478.0751"
       x2="233.32715"
       y1="478.0751"
       x1="208.34222"
       gradientTransform="matrix(1.0000642,0,0,1.0000642,-103.23136,334.25497)"
       gradientUnits="userSpaceOnUse"
       id="linearGradient4280"
       xlink:href="#linearGradient4812" />
    <linearGradient
       y2="478.0751"
       x2="323.22745"
       y1="478.0751"
       x1="298.24252"
       gradientTransform="matrix(1.0000642,0,0,1.0000642,-103.23136,334.25497)"
       gradientUnits="userSpaceOnUse"
       id="linearGradient4282"
       xlink:href="#linearGradient4812" />
    <linearGradient
       y2="-5.2234998"
       x2="0"
       y1="-5.2234998"
       x1="-18.143999"
       gradientUnits="userSpaceOnUse"
       id="linearGradient4286"
       xlink:href="#linearGradient4812" />
    <linearGradient
       y2="1.8150001"
       x2="0"
       y1="1.8150001"
       x1="-3.6300001"
       gradientUnits="userSpaceOnUse"
       id="linearGradient4290"
       xlink:href="#linearGradient4812" />
    <linearGradient
       y2="-4.1170001"
       x2="3.6300001"
       y1="-4.1170001"
       x1="0"
       gradientUnits="userSpaceOnUse"
       id="linearGradient4294"
       xlink:href="#linearGradient4812" />
    <linearGradient
       y2="458.09061"
       x2="263.30905"
       y1="458.09061"
       x1="178.35756"
       gradientTransform="matrix(1.0000642,0,0,1.0000642,-103.23136,334.25497)"
       gradientUnits="userSpaceOnUse"
       id="linearGradient4308"
       xlink:href="#linearGradient4812" />
    <linearGradient
       y2="458.09061"
       x2="353.14191"
       y1="458.09061"
       x1="298.24252"
       gradientTransform="matrix(1.0000642,0,0,1.0000642,-103.23136,334.25497)"
       gradientUnits="userSpaceOnUse"
       id="linearGradient4310"
       xlink:href="#linearGradient4812" />
    <linearGradient
       y2="-5.2234998"
       x2="0"
       y1="-5.2234998"
       x1="-18.143999"
       gradientUnits="userSpaceOnUse"
       id="linearGradient6724"
       xlink:href="#linearGradient4812" />
    <linearGradient
       y2="-5.2234998"
       x2="0"
       y1="-5.2234998"
       x1="-18.143999"
       gradientUnits="userSpaceOnUse"
       id="linearGradient6726"
       xlink:href="#linearGradient4812" />
    <linearGradient
       y2="1.8150001"
       x2="0"
       y1="1.8150001"
       x1="-3.6300001"
       gradientUnits="userSpaceOnUse"
       id="linearGradient6728"
       xlink:href="#linearGradient4812" />
    <linearGradient
       y2="1.8150001"
       x2="0"
       y1="1.8150001"
       x1="-3.6300001"
       gradientUnits="userSpaceOnUse"
       id="linearGradient6730"
       xlink:href="#linearGradient4812" />
    <linearGradient
       y2="-4.1170001"
       x2="3.6300001"
       y1="-4.1170001"
       x1="0"
       gradientUnits="userSpaceOnUse"
       id="linearGradient6732"
       xlink:href="#linearGradient4812" />
    <linearGradient
       y2="-4.1170001"
       x2="3.6300001"
       y1="-4.1170001"
       x1="0"
       gradientUnits="userSpaceOnUse"
       id="linearGradient6734"
       xlink:href="#linearGradient4812" />
    <linearGradient
       y2="-5.2234998"
       x2="0"
       y1="-5.2234998"
       x1="-18.143999"
       gradientUnits="userSpaceOnUse"
       id="linearGradient6736"
       xlink:href="#linearGradient4812" />
    <linearGradient
       y2="1.8150001"
       x2="0"
       y1="1.8150001"
       x1="-3.6300001"
       gradientUnits="userSpaceOnUse"
       id="linearGradient6738"
       xlink:href="#linearGradient4812" />
    <linearGradient
       y2="-4.1170001"
       x2="3.6300001"
       y1="-4.1170001"
       x1="0"
       gradientUnits="userSpaceOnUse"
       id="linearGradient6740"
       xlink:href="#linearGradient4812" />
  </defs>
  <metadata
     id="metadata6080">
    <rdf:RDF>
      <cc:Work
         rdf:about="">
        <dc:format>image/svg+xml</dc:format>
        <dc:type
           rdf:resource="http://purl.org/dc/dcmitype/StillImage" />
        <dc:title></dc:title>
      </cc:Work>
    </rdf:RDF>
  </metadata>
  <g
     transform="translate(-466.85455,-135.59206)"
     id="layer1">
    <g
       transform="translate(391.71688,-654.28567)"
       id="blue-rest"
       style="display:inline">
      <path
         id="path4236"
         style="fill:url(#linearGradient4278);fill-opacity:1;fill-rule:nonzero;stroke:none"
         d="m 249.99932,834.84659 -144.87507,0 0,-4.99589 144.87507,0 0,4.99589 z" />
      <path
         id="path4242"
         style="fill:url(#linearGradient4280);fill-opacity:1;fill-rule:nonzero;stroke:none"
         d="m 110.12155,809.86146 14.99329,0 0,-4.99732 -14.99329,0 0,4.99732 z m 19.98922,-9.99462 0,14.99325 -19.98922,0 0,4.996 19.98922,0 0,4.99863 -24.98652,0 0,-24.98788 24.98652,0 z" />
      <path
         id="path4246"
         style="fill:url(#linearGradient4282);fill-opacity:1;fill-rule:nonzero;stroke:none"
         d="m 200.02763,809.86146 14.9933,0 0,-4.99732 -14.9933,0 0,4.99732 z m 19.98923,-9.99462 0,14.99325 -19.98923,0 0,4.996 19.98923,0 0,4.99863 -24.98654,0 0,-24.98788 24.98654,0 z" />
      <g
         style="fill:url(#linearGradient6726);fill-opacity:1;stroke:none"
         transform="matrix(1.3766684,0,0,-1.3766695,160.08815,806.94204)"
         id="g4248">
        <path
           id="path4250"
           style="fill:url(#linearGradient6724);fill-opacity:1;fill-rule:nonzero;stroke:none"
           d="M 0,0 -13.009,-13.008 -18.144,-13.013 -2.565,2.566 0,0 Z" />
      </g>
      <g
         style="fill:url(#linearGradient6730);fill-opacity:1;stroke:none"
         transform="matrix(1.3766684,0,0,-1.3766695,140.10567,814.85591)"
         id="g4252">
        <path
           id="path4254"
           style="fill:url(#linearGradient6728);fill-opacity:1;fill-rule:nonzero;stroke:none"
           d="m 0,0 0,10.89 -3.63,0 0,-18.15 3.63,0 0,3.63 L 0,0 Z" />
      </g>
      <g
         style="fill:url(#linearGradient6734);fill-opacity:1;stroke:none"
         transform="matrix(1.3766684,0,0,-1.3766695,155.09772,799.86453)"
         id="g4256">
        <path
           id="path4258"
           style="fill:url(#linearGradient6732);fill-opacity:1;fill-rule:nonzero;stroke:none"
           d="M 0,0 0,-8.234 3.63,-5.141 3.63,0 0,0 Z" />
      </g>
      <g
         style="fill:url(#linearGradient4286);fill-opacity:1;stroke:none"
         transform="matrix(1.3766684,0,0,-1.3766695,249.99313,806.94204)"
         id="g4260">
        <path
           id="path4262"
           style="fill:url(#linearGradient6736);fill-opacity:1;fill-rule:nonzero;stroke:none"
           d="M 0,0 -13.008,-13.008 -18.144,-13.013 -2.564,2.566 0,0 Z" />
      </g>
      <g
         style="fill:url(#linearGradient4290);fill-opacity:1;stroke:none"
         transform="matrix(1.3766684,0,0,-1.3766695,230.01119,814.85591)"
         id="g4264">
        <path
           id="path4266"
           style="fill:url(#linearGradient6738);fill-opacity:1;fill-rule:nonzero;stroke:none"
           d="m 0,0 0,10.89 -3.63,0 0,-18.15 3.63,0 0,3.63 L 0,0 Z" />
      </g>
      <g
         style="fill:url(#linearGradient4294);fill-opacity:1;stroke:none"
         transform="matrix(1.3766684,0,0,-1.3766695,245.00269,799.86453)"
         id="g4268">
        <path
           id="path4270"
           style="fill:url(#linearGradient6740);fill-opacity:1;fill-rule:nonzero;stroke:none"
           d="M 0,0 0,-8.234 3.63,-5.141 3.63,0 0,0 Z" />
      </g>
      <path
         id="path4272"
         style="fill:url(#linearGradient4308);fill-opacity:1;fill-rule:nonzero;stroke:none"
         d="m 75.137669,794.87228 84.956941,0 0,-4.99455 -84.956941,0 0,4.99455 z" />
      <path
         id="path4274"
         style="fill:url(#linearGradient4310);fill-opacity:1;fill-rule:nonzero;stroke:none"
         d="m 195.03032,794.87228 54.90292,0 0,-4.99455 -54.90292,0 0,4.99455 z" />
    </g>
  </g>
</svg>
