<?xml version="1.0" encoding="UTF-8" standalone="no"?>
<svg
   xmlns:dc="http://purl.org/dc/elements/1.1/"
   xmlns:cc="http://creativecommons.org/ns#"
   xmlns:rdf="http://www.w3.org/1999/02/22-rdf-syntax-ns#"
   xmlns:svg="http://www.w3.org/2000/svg"
   xmlns="http://www.w3.org/2000/svg"
   version="1.1"
   id="svg2"
   viewBox="0 0 16 16"
   height="16"
   width="16">
  <defs
     id="defs4" />
  <metadata
     id="metadata7">
    <rdf:RDF>
      <cc:Work
         rdf:about="">
        <dc:format>image/svg+xml</dc:format>
        <dc:type
           rdf:resource="http://purl.org/dc/dcmitype/StillImage" />
        <dc:title></dc:title>
      </cc:Work>
    </rdf:RDF>
  </metadata>
  <g
     transform="translate(0,-1036.3622)"
     id="layer1">
    <rect
       ry="2"
       rx="2"
       y="1036.3622"
       x="0"
       height="16"
       width="16"
       id="rect3353"
       style="fill:#f0eeec;fill-opacity:1;fill-rule:evenodd;stroke:none;stroke-width:1px;stroke-linecap:butt;stroke-linejoin:miter;stroke-opacity:1" />
    <g
       transform="translate(0.2254259,0.1985)"
       id="g8127">
      <path
         style="fill:#50647d;fill-opacity:1"
         d="m 2.6286392,1047.9063 0,-0.4679 0.4678115,0 0.4678138,0 0,0.4679 0,0.4677 -0.4678138,0 -0.4678115,0 0,-0.4677 z"
         id="path4191" />
      <path
         style="fill:#50647d;fill-opacity:1"
         d="m 4.4998875,1047.9063 0,-0.4679 0.4678116,0 0.4678137,0 0,0.4679 0,0.4677 -0.4678137,0 -0.4678116,0 0,-0.4677 z"
         id="path4189" />
      <path
         style="fill:#50647d;fill-opacity:1"
         d="m 6.3711359,1047.9063 0,-0.4679 0.4678137,0 0.4678116,0 0,0.4679 0,0.4677 -0.4678116,0 -0.4678137,0 0,-0.4677 z"
         id="path4187" />
      <path
         style="fill:#333333;fill-opacity:1"
         d="m 8.2423865,1047.9063 0,-0.4679 2.3390595,0 2.339063,0 0,0.4679 0,0.4677 -2.339063,0 -2.3390595,0 0,-0.4677 z"
         id="path4185" />
      <path
         style="fill:#50647d;fill-opacity:1"
         d="m 2.6286392,1046.035 0,-0.4679 1.8712483,0 1.8712484,0 0,-0.4677 0,-0.4679 -1.8712484,0 -1.8712483,0 0,-1.4034 0,-1.4034 2.3390599,0 2.3390621,0 0,0.4678 0,0.4678 -1.8712484,0 -1.8712483,0 0,0.4678 0,0.4678 1.8712483,0 1.8712484,0 0,1.4035 0,1.4034 -2.3390621,0 -2.3390599,0 0,-0.4678 z"
         id="path4183" />
      <path
         style="fill:#50647d;fill-opacity:1"
         d="m 11.984375,3.5917969 0,0.9355469 0,0.9355468 -1.871094,0 -1.8710935,0 0,2.3378906 0,2.3398438 2.3398435,0 2.337891,0 0,-3.2753906 0,-3.2734375 -0.466797,0 -0.46875,0 z m -2.8066406,2.8066406 1.4042966,0 1.402344,0 0,1.4023437 0,1.4042969 -1.402344,0 -1.4042966,0 0,-1.4042969 0,-1.4023437 z"
         transform="translate(0,1036.3622)"
         id="path4181" />
      <path
         style="fill:#333333;fill-opacity:1"
         d="m 2.6286392,1040.4213 0,-0.4679 2.3390599,0 2.3390621,0 0,0.4679 0,0.4677 -2.3390621,0 -2.3390599,0 0,-0.4677 z"
         id="path4177" />
      <path
         style="fill:#50647d;fill-opacity:1"
         d="m 8.2423865,1040.4213 0,-0.4679 1.403437,0 1.4034365,0 0,0.4679 0,0.4677 -1.4034365,0 -1.403437,0 0,-0.4677 z"
         id="path3351" />
    </g>
  </g>
</svg>
